<svg xmlns="http://www.w3.org/2000/svg" width="66.325" height="75.216" viewBox="0 0 66.325 75.216">
  <path id="icon-shoppingbag" d="M82.791,72.881l-4.3-53.229a2.022,2.022,0,0,0-2.015-1.859H64.927v-2.56A15.174,15.174,0,0,0,49.783,0h-.267A15.328,15.328,0,0,0,34.193,15.233v2.56H22.825a2.022,2.022,0,0,0-2.015,1.859L16.5,73.032a2.022,2.022,0,0,0,2.015,2.185H80.793a2.024,2.024,0,0,0,2-2.335ZM38.237,15.233A11.279,11.279,0,0,1,49.516,4.044h.267a11.126,11.126,0,0,1,11.1,11.189v2.56H38.237Z" transform="translate(-16.49)" fill="#45594e"/>
</svg>
