<svg id="_1384015" data-name="1384015" xmlns="http://www.w3.org/2000/svg" width="100" height="100" viewBox="0 0 100 100">
  <path id="Path_13" data-name="Path 13" d="M226.715,216.857A9.857,9.857,0,1,1,216.857,207,9.857,9.857,0,0,1,226.715,216.857Zm0,0" transform="translate(-166.857 -166.857)" fill="#f3d5bb"/>
  <path id="Path_14" data-name="Path 14" d="M182.782,142.292a9.793,9.793,0,0,0-5.612-5.612,16.362,16.362,0,0,0-5.491-1.018c-3.119-.142-4.054-.173-11.95-.173s-8.832.03-11.95.172a16.372,16.372,0,0,0-5.491,1.018,9.8,9.8,0,0,0-5.613,5.612,16.367,16.367,0,0,0-1.018,5.491c-.142,3.118-.173,4.053-.173,11.95s.031,8.831.173,11.95a16.361,16.361,0,0,0,1.018,5.491,9.793,9.793,0,0,0,5.612,5.612,16.342,16.342,0,0,0,5.491,1.018c3.118.142,4.053.172,11.949.172s8.833-.03,11.95-.172a16.342,16.342,0,0,0,5.491-1.018,9.793,9.793,0,0,0,5.612-5.612,16.377,16.377,0,0,0,1.018-5.491c.142-3.119.172-4.054.172-11.95s-.03-8.832-.172-11.95A16.341,16.341,0,0,0,182.782,142.292Zm-23.053,32.626a15.185,15.185,0,1,1,15.185-15.185A15.185,15.185,0,0,1,159.729,174.918ZM175.515,147.5a3.549,3.549,0,1,1,3.549-3.549A3.549,3.549,0,0,1,175.515,147.5Zm0,0" transform="translate(-109.729 -109.732)" fill="#f3d5bb"/>
  <path id="Path_15" data-name="Path 15" d="M50,0a50,50,0,1,0,50,50A50.005,50.005,0,0,0,50,0ZM78.538,61.837A21.065,21.065,0,0,1,77.2,68.806a14.681,14.681,0,0,1-8.4,8.4,21.079,21.079,0,0,1-6.969,1.334c-3.062.14-4.04.173-11.837.173s-8.775-.034-11.838-.173A21.079,21.079,0,0,1,31.194,77.2a14.68,14.68,0,0,1-8.4-8.4,21.06,21.06,0,0,1-1.334-6.969c-.141-3.062-.174-4.041-.174-11.838s.033-8.775.173-11.837A21.067,21.067,0,0,1,22.8,31.193a14.69,14.69,0,0,1,8.4-8.4,21.084,21.084,0,0,1,6.969-1.334c3.062-.14,4.04-.173,11.837-.173s8.775.034,11.837.174A21.089,21.089,0,0,1,68.806,22.8a14.685,14.685,0,0,1,8.4,8.4,21.062,21.062,0,0,1,1.335,6.969c.14,3.062.172,4.04.172,11.837S78.678,58.775,78.538,61.837Zm0,0" fill="#f3d5bb"/>
</svg>
