<svg xmlns="http://www.w3.org/2000/svg" width="282" height="282" viewBox="0 0 282 282">
  <g id="logo-orange" transform="translate(-643 -667)">
    <circle id="Ellipse_23" data-name="Ellipse 23" cx="141" cy="141" r="141" transform="translate(643 667)" fill="#d17448"/>
    <g id="logo" transform="translate(-826 -100)">
      <g id="Union_5" data-name="Union 5" transform="translate(1533 779)" fill="none">
        <path d="M.226,186.555H0V75.418H.025a77.5,77.5,0,0,1,154.95,0H155V186.555h-.226a77.512,77.512,0,0,1-154.548,0Z" stroke="none"/>
        <path d="M 77.50177001953125 253 C 95.89588165283203 253 113.4355773925781 246.1109161376953 126.8898849487305 233.6017761230469 C 130.1238861083984 230.5950012207031 133.0987701416016 227.2761993408203 135.7319641113281 223.7375335693359 C 138.3829193115234 220.1750793457031 140.7147369384766 216.3529968261719 142.6626892089844 212.3775024414062 C 146.6930694580078 204.1520843505859 149.0905456542969 195.3362274169922 149.7884979248047 186.1748046875 L 150 183.3984527587891 L 150 76.47254180908203 L 149.9766082763672 75.54354095458984 C 149.7356872558594 65.97026824951172 147.6520385742188 56.71007537841797 143.7835388183594 48.02019119262695 C 141.9205780029297 43.83538436889648 139.6418914794922 39.80323028564453 137.0107269287109 36.03565216064453 C 134.4014282226562 32.29942321777344 131.4216613769531 28.78903770446777 128.1542358398438 25.60196113586426 C 124.884765625 22.41300010681152 121.2986907958984 19.51984596252441 117.4954986572266 17.00284576416016 C 113.6559600830078 14.46180725097656 109.5589599609375 12.28042316436768 105.3183059692383 10.51934623718262 C 96.49954223632812 6.856961727142334 87.14073181152344 5 77.50177001953125 5 C 67.86196136474609 5 58.50238418579102 6.85699987411499 49.6831169128418 10.51938438415527 C 45.44223022460938 12.28046131134033 41.34503936767578 14.46184635162354 37.50530624389648 17.0029239654541 C 33.70196151733398 19.51988410949707 30.11573028564453 22.41303825378418 26.84619140625 25.6020393371582 C 23.57865333557129 28.78907775878906 20.59880828857422 32.29946136474609 17.98946189880371 36.03573226928711 C 15.35826969146729 39.80323028564453 13.07950019836426 43.83542251586914 11.21653842926025 48.02022933959961 C 7.348038673400879 56.71003723144531 5.264384746551514 65.97023010253906 5.023423194885254 75.54354095458984 L 5 76.47406768798828 L 5 77.40038299560547 L 5 180.5996551513672 L 5 183.39794921875 L 5.211538314819336 186.1748046875 C 5.909500122070312 195.3362731933594 8.307000160217285 204.1521148681641 12.33742332458496 212.3774566650391 C 14.28538417816162 216.3529663085938 16.61726951599121 220.1750335693359 19.26826858520508 223.7375030517578 C 21.9015007019043 227.2761535644531 24.87649917602539 230.5949554443359 28.11057662963867 233.6017303466797 C 41.56538391113281 246.1108856201172 59.10615539550781 253 77.50177001953125 253 M 77.50177001953125 258 C 36.70296096801758 258 3.270615339279175 226.5180816650391 0.2259999960660934 186.5546112060547 L 0 186.5546112060547 L 0 180.5996551513672 L 0 77.40038299560547 L 0 75.41773223876953 L 0.02500000037252903 75.41773223876953 C 1.077807664871216 33.58788299560547 35.36003875732422 0 77.50177001953125 0 C 119.6399993896484 0 153.9222259521484 33.58788299560547 154.9750366210938 75.41773223876953 L 155 75.41773223876953 L 155 186.5546112060547 L 154.7740325927734 186.5546112060547 C 151.7294158935547 226.5180816650391 118.297233581543 258 77.50177001953125 258 Z" stroke="none" fill="#f3d5bb"/>
      </g>
      <line id="Line_12" data-name="Line 12" x2="36.965" transform="translate(1648.5 914)" fill="none" stroke="#f3d5bb" stroke-linecap="round" stroke-width="5"/>
      <line id="Line_14" data-name="Line 14" x2="63.965" transform="translate(1621.5 894)" fill="none" stroke="#f3d5bb" stroke-linecap="round" stroke-width="5"/>
      <line id="Line_13" data-name="Line 13" y1="84" transform="translate(1651.5 936.5)" fill="none" stroke="#f3d5bb" stroke-linecap="round" stroke-width="5"/>
      <g id="Group_30" data-name="Group 30" transform="translate(1534.535 824.592)">
        <line id="Line_7" data-name="Line 7" x1="65.556" y2="55.908" transform="translate(1.965)" fill="none" stroke="#f3d5bb" stroke-linecap="round" stroke-width="5"/>
        <line id="Line_8" data-name="Line 8" x2="67.521" y2="55.606" transform="translate(67.521 0)" fill="none" stroke="#f3d5bb" stroke-linecap="round" stroke-width="5"/>
        <line id="Line_11" data-name="Line 11" x2="39.718" y2="33.761" transform="translate(111.211 3.972)" fill="none" stroke="#f3d5bb" stroke-linecap="round" stroke-width="5"/>
      </g>
      <path id="Path_30" data-name="Path 30" d="M21.306.917,3.3,16.738" transform="translate(1623.779 827.316)" fill="none" stroke="#f3d5bb" stroke-linecap="round" stroke-width="5"/>
      <g id="Ellipse_22" data-name="Ellipse 22" transform="translate(1535 914)" fill="none" stroke="#f3d5bb" stroke-width="5">
        <circle cx="43" cy="43" r="43" stroke="none"/>
        <circle cx="43" cy="43" r="40.5" fill="none"/>
      </g>
    </g>
  </g>
</svg>
