<svg xmlns="http://www.w3.org/2000/svg" width="37.893" height="34.982" viewBox="0 0 37.893 34.982">
  <g id="icon-1" transform="translate(-362 -728)">
    <g id="Layer_1" data-name="Layer 1" transform="translate(362 728)">
      <path id="Path_1" data-name="Path 1" d="M16.02,19.75A9.766,9.766,0,0,1,6.4,9.882,9.766,9.766,0,0,1,16.02,0a9.766,9.766,0,0,1,9.62,9.882,9.766,9.766,0,0,1-9.62,9.868Zm0-17.2a7.29,7.29,0,0,0,0,14.576,7.29,7.29,0,0,0,0-14.576Z" transform="translate(2.942 0)" fill="#45594e"/>
      <path id="Path_2" data-name="Path 2" d="M36.663,28.769H1.243a1.21,1.21,0,0,1-.918-.437A1.224,1.224,0,0,1,0,27.311c1.02-8.746,4.883-13.264,11.806-13.731a1.254,1.254,0,0,1,.816.248,10.2,10.2,0,0,0,12.608,0,1.283,1.283,0,0,1,.831-.248c6.909.452,10.786,4.956,11.806,13.731a1.224,1.224,0,0,1-.306.991,1.21,1.21,0,0,1-.9.466ZM2.686,26.218H35.22c-1.049-6.4-3.833-9.533-8.877-10.014a12.637,12.637,0,0,1-14.795,0C6.52,16.685,3.736,19.819,2.686,26.218Z" transform="translate(0.009 6.213)" fill="#45594e"/>
    </g>
  </g>
</svg>
