<svg xmlns="http://www.w3.org/2000/svg" width="671.647" height="669.187" viewBox="0 0 671.647 669.187">
  <g id="star" transform="translate(200.08 -4.133) rotate(23.003)">
    <path id="Path_33" data-name="Path 33" d="M503.384,243.685c-30.059-12.05-58.533-34.623-82.345-65.281-24.287-31.271-43.862-71.117-56.609-115.233L349.842,12.686a15,15,0,0,0-28.82,0L306.435,63.17c-12.747,44.116-32.322,83.964-56.609,115.233-23.812,30.658-52.286,53.231-82.346,65.281a15,15,0,0,0-.434,27.665l4.663,2.041c59.676,26.122,108.444,90.453,133.8,176.5l15.534,52.718a15,15,0,0,0,28.778,0l15.535-52.718c25.355-86.047,74.124-150.378,133.8-176.5l4.662-2.041a15,15,0,0,0-.435-27.664Zm-166.8,197.724-1.146,3.891-1.146-3.891c-24.692-83.781-70.577-149.266-127.88-183.753,24.507-14.749,47.336-35.4,67.106-60.851,26.6-34.244,47.946-77.574,61.737-125.308l.178-.612.177.612c13.791,47.733,35.14,91.063,61.737,125.308,19.771,25.456,42.6,46.1,67.106,60.851-57.3,34.488-103.186,99.972-127.874,183.753Z" fill="#f3d5bb"/>
    <path id="Path_34" data-name="Path 34" d="M19.57,149.5l2.338,1.022c27.9,12.214,50.843,42.754,62.935,83.788l7.791,26.441a15,15,0,0,0,28.778,0L129.2,234.31c12.092-41.035,35.031-71.575,62.934-83.788l2.339-1.023a15,15,0,0,0-.433-27.665C165.335,110.323,140.926,78.3,128.75,36.157l-7.316-25.321a15,15,0,0,0-28.823,0L85.3,36.157C73.121,78.3,48.712,110.323,20,121.832a15,15,0,0,0-.43,27.668Zm87.452-84.254c12.055,30.262,29.807,54.618,51.29,70.577-21.479,16.062-39.275,40.582-51.29,70.846C95.008,176.4,77.212,151.883,55.733,135.82c21.483-15.959,39.234-40.315,51.289-70.577Z" fill="#f3d5bb"/>
    <path id="Path_35" data-name="Path 35" d="M134.7,400.672c-18.679-7.488-34.656-28.66-42.74-56.636l-5.089-17.617a15,15,0,0,0-28.821,0l-5.091,17.618C44.88,372.012,28.9,393.183,10.224,400.672a15,15,0,0,0-.432,27.665l1.625.711c17.908,7.84,33.324,28.552,41.237,55.4l5.421,18.4a15,15,0,0,0,28.778,0l5.421-18.4c7.912-26.853,23.328-47.563,41.235-55.4l1.627-.712a15,15,0,0,0-.432-27.666ZM72.463,452.584c-7.429-15.379-17.1-28.3-28.376-37.932,11.279-9.58,20.937-22.428,28.376-37.8,7.439,15.367,17.1,28.215,28.376,37.795C89.562,424.286,79.892,437.2,72.463,452.584Z" fill="#f3d5bb"/>
  </g>
</svg>
